<?xml version="1.0" encoding="UTF-8" standalone="no"?>
<svg width="409px" height="470px" viewBox="0 0 409 470" version="1.1" xmlns="http://www.w3.org/2000/svg" xmlns:xlink="http://www.w3.org/1999/xlink" xmlns:sketch="http://www.bohemiancoding.com/sketch/ns">
    <title>logo-open-heart@2x</title>
    <description>Created with Sketch (http://www.bohemiancoding.com/sketch)</description>
    <defs>
        <linearGradient x1="100%" y1="-30.2578125%" x2="83.3990815%" y2="87.7421875%" id="linearGradient-1">
            <stop stop-color="#E5B62E" offset="0%"></stop>
            <stop stop-color="#8A3A0A" offset="100%"></stop>
        </linearGradient>
        <linearGradient x1="100%" y1="17.1425781%" x2="100%" y2="65.1601562%" id="linearGradient-2">
            <stop stop-color="#FFFFFF" offset="0%"></stop>
            <stop stop-color="#000000" offset="100%"></stop>
        </linearGradient>
        <path d="M60.4414121,133 L60.4414121,273 L206,213 L206,73 L60.4414121,133 Z M60.4414121,133" id="path-3"></path>
        <linearGradient x1="11.890625%" y1="-69.2578125%" x2="94.5572917%" y2="76.2421875%" id="linearGradient-4">
            <stop stop-color="#E5B62E" offset="0%"></stop>
            <stop stop-color="#8A3A0A" offset="100%"></stop>
        </linearGradient>
        <path d="M206,73 L356,133 L356,273 L206,213 L206,73 Z M206,73" id="path-5"></path>
        <linearGradient x1="50%" y1="0%" x2="50%" y2="100%" id="linearGradient-6">
            <stop stop-color="#FD585C" offset="0%"></stop>
            <stop stop-color="#A51515" offset="100%"></stop>
        </linearGradient>
        <radialGradient cx="50%" cy="13.7060073%" fx="50%" fy="13.7060073%" r="142.233014%" id="radialGradient-7">
            <stop stop-color="#FFFFFF" offset="0%"></stop>
            <stop stop-color="#000000" offset="100%"></stop>
        </radialGradient>
        <radialGradient cx="25.6168693%" cy="21.484375%" fx="25.6168693%" fy="21.484375%" r="79.1044056%" id="radialGradient-8">
            <stop stop-color="#FFFFFF" offset="0%"></stop>
            <stop stop-color="#000000" offset="100%"></stop>
        </radialGradient>
        <path d="M214.996868,61.3753234 C215.343135,27.4219208 243.417548,0 278,0 C312.793941,0 341,27.7583438 341,62 C341,75.0361615 336.911798,87.1326281 329.928434,97.1152344 L330.177734,97.1152344 L328.516343,99.0531643 C327.01123,101.037298 325.388397,102.929633 323.657732,104.720491 L213.683436,233 L105.963305,104.324913 C104.163349,102.429568 102.482809,100.42295 100.93331,98.3164256 L99.9277344,97.1152344 L100.071566,97.1152344 C93.0882021,87.1326281 89,75.0361615 89,62 C89,27.7583438 117.206059,0 152,0 C186.582111,0 214.656312,27.4213802 214.996868,61.3753234 Z M214.996868,61.3753234" id="path-9"></path>
        <linearGradient x1="7.1640625%" y1="79.2675781%" x2="41.1640625%" y2="0%" id="linearGradient-10">
            <stop stop-color="#8A3A0A" offset="0%"></stop>
            <stop stop-color="#E5B62E" offset="100%"></stop>
        </linearGradient>
        <linearGradient x1="4.0012883%" y1="-37.7382812%" x2="53.4659067%" y2="87.7617188%" id="linearGradient-11">
            <stop stop-color="#E5B62E" offset="0%"></stop>
            <stop stop-color="#8A3A0A" offset="100%"></stop>
        </linearGradient>
        <linearGradient x1="-39.9996244%" y1="154.145306%" x2="86.9234525%" y2="8.78610314%" id="linearGradient-12">
            <stop stop-color="#8A3A0A" offset="0%"></stop>
            <stop stop-color="#E5B62E" offset="100%"></stop>
        </linearGradient>
        <linearGradient x1="28.0417358%" y1="0%" x2="81.7705731%" y2="100%" id="linearGradient-13">
            <stop stop-color="#E5B62E" offset="0%"></stop>
            <stop stop-color="#8A3A0A" offset="100%"></stop>
        </linearGradient>
    </defs>
    <g id="Page 1" stroke="none" stroke-width="1" fill="none" fill-rule="evenodd">
        <use id="Path 3 copy 2" stroke="#8E5828" fill="url(#linearGradient-1)" xlink:href="#path-3"></use>
        <use id="Path 3 copy 2-1" fill="url(#linearGradient-2)" xlink:href="#path-3"></use>
        <use id="Path 3 copy" stroke="#8E5828" fill="url(#linearGradient-4)" xlink:href="#path-5"></use>
        <use id="Path 3 copy-1" fill="url(#linearGradient-2)" xlink:href="#path-5"></use>
        <use id="Oval 1" fill="url(#linearGradient-6)" xlink:href="#path-9"></use>
        <use id="Oval 1-1" fill="url(#radialGradient-7)" xlink:href="#path-9"></use>
        <use id="Oval 1-2" fill="url(#radialGradient-8)" xlink:href="#path-9"></use>
        <path d="M60,133 L210,193 L210,333 L60,273 L60,133 Z M60,133" id="Path 3" stroke="#8E5828" fill="url(#linearGradient-10)"></path>
        <path d="M210,193 L210,333 L355.558588,273 L355.558588,133 L210,193 Z M210,193" id="Path 3 copy" stroke="#8E5828" fill="url(#linearGradient-11)"></path>
        <path d="M209,192 L138.289322,262.710678 L1,192 L60,132 L209,192 Z M209,192" id="Path 6" stroke="#8E5828" fill="url(#linearGradient-12)"></path>
        <path d="M213,192 L275.425781,260.15625 L408.425781,192 L355,132 L213,192 Z M213,192" id="Path 7" stroke="#8E5828" fill="url(#linearGradient-13)"></path>
        <text id="OPEN&lt;3" fill="#4A4A4A" font-family="Futura" font-size="92" font-weight="420" x="19" y="455.707031">
            <tspan>OPEN&lt;3</tspan>
        </text>
    </g>
</svg>