<svg xmlns="http://www.w3.org/2000/svg" xmlns:xlink="http://www.w3.org/1999/xlink" version="1.1" x="0px" y="0px" width="100px" height="100px" viewBox="0 0 100 100" enable-background="new 0 0 100 100" xml:space="preserve">
<g id="Captions">
</g>
<g id="Your_Icon">
	<path d="M92.419,50.608L90.1,51.062c-0.702,0.139-1.543-0.261-1.868-0.893l-4.603-6.749c-0.454-0.536-0.519-1.455-0.123-2.043   l1.264-1.876c0.393-0.591,0.237-1.396-0.351-1.79l-4.518-3.036c-0.588-0.397-1.393-0.24-1.798,0.351l-1.362,2.038   c-0.402,0.594-1.284,0.905-1.961,0.701l-6.913-1.303c-0.707-0.054-1.398-0.678-1.532-1.372l-0.47-2.376   c-0.134-0.691-0.815-1.15-1.507-1.014l-5.348,1.05c-0.694,0.134-1.155,0.815-1.019,1.507l0.464,2.379   c0.14,0.69-0.269,1.534-0.888,1.87l-6.811,4.641c-0.526,0.465-1.437,0.521-2.03,0.129l-1.994-1.342   c-0.583-0.395-1.391-0.237-1.785,0.352l-3.039,4.52c-0.402,0.593-0.242,1.398,0.352,1.79l2.169,1.468   c0.597,0.396,0.908,1.267,0.71,1.948l-1.285,6.852c-0.052,0.709-0.671,1.396-1.372,1.532l-2.521,0.495   c-0.694,0.137-1.148,0.815-1.009,1.51l1.048,5.343c0.134,0.701,0.812,1.16,1.506,1.026l2.519-0.495   c0.701-0.137,1.54,0.258,1.872,0.888l4.535,6.704c0.476,0.529,0.526,1.447,0.14,2.036l-1.398,2.073   c-0.397,0.583-0.237,1.389,0.352,1.783l4.524,3.039c0.588,0.397,1.394,0.239,1.78-0.349l1.496-2.213   c0.397-0.589,1.264-0.896,1.95-0.689l6.988,1.318c0.697,0.062,1.389,0.684,1.525,1.373l0.484,2.477   c0.135,0.696,0.818,1.15,1.512,1.016l5.348-1.05c0.689-0.137,1.153-0.815,1.015-1.509l-0.485-2.477   c-0.134-0.691,0.263-1.527,0.903-1.863l6.643-4.493c0.536-0.462,1.447-0.517,2.04-0.129l1.956,1.328   c0.588,0.39,1.393,0.235,1.79-0.351l3.042-4.527c0.396-0.586,0.239-1.394-0.349-1.785l-2.087-1.398   c-0.581-0.397-0.896-1.274-0.687-1.95l1.344-7.054c0.052-0.712,0.682-1.393,1.383-1.537l2.319-0.457   c0.689-0.134,1.153-0.814,1.014-1.509l-1.047-5.345C93.794,50.928,93.107,50.474,92.419,50.608z M69.899,74.659   c-8.242,1.617-16.234-3.759-17.849-11.998c-1.618-8.245,3.756-16.237,11.998-17.85c8.24-1.617,16.232,3.754,17.85,11.998   C83.516,65.052,78.145,73.044,69.899,74.659z"/>
	<path d="M41.059,19.661l-1.471,0.985c-0.446,0.3-1.146,0.266-1.551-0.077l-5.139-3.333c-0.47-0.24-0.781-0.856-0.679-1.38   l0.33-1.661c0.104-0.524-0.242-1.037-0.761-1.138l-4.006-0.792c-0.521-0.106-1.032,0.237-1.141,0.766l-0.351,1.806   c-0.108,0.524-0.63,0.996-1.156,1.053l-5.159,1.1c-0.506,0.167-1.163-0.062-1.458-0.504l-1.011-1.509   c-0.294-0.438-0.9-0.558-1.339-0.263l-3.396,2.275c-0.438,0.294-0.562,0.897-0.268,1.339l1.011,1.509   c0.297,0.438,0.264,1.141-0.072,1.551L10.08,26.57c-0.229,0.475-0.846,0.779-1.367,0.681L6.943,26.9   c-0.519-0.104-1.031,0.237-1.135,0.758l-0.789,4.01c-0.106,0.525,0.237,1.037,0.763,1.138l1.925,0.384   c0.526,0.104,0.996,0.614,1.053,1.146l1.099,5.11c0.171,0.503-0.062,1.158-0.505,1.458l-1.6,1.07   c-0.438,0.297-0.558,0.897-0.258,1.339l2.272,3.393c0.297,0.446,0.896,0.567,1.339,0.271l1.6-1.07   c0.443-0.299,1.135-0.266,1.55,0.072l5.08,3.322c0.482,0.229,0.784,0.849,0.686,1.368l-0.366,1.839   c-0.103,0.521,0.237,1.029,0.759,1.135l4.009,0.79c0.526,0.103,1.037-0.24,1.135-0.759l0.393-1.966   c0.104-0.521,0.614-0.985,1.15-1.042l5.217-1.112c0.5-0.16,1.155,0.07,1.449,0.509l1.053,1.573   c0.297,0.438,0.903,0.558,1.342,0.264l3.395-2.275c0.438-0.295,0.56-0.898,0.266-1.339l-1.055-1.574   c-0.289-0.436-0.258-1.13,0.088-1.545l3.291-5.038c0.237-0.473,0.852-0.774,1.373-0.679l1.738,0.351   c0.521,0.101,1.032-0.242,1.138-0.764l0.792-4.012c0.104-0.519-0.237-1.031-0.764-1.132l-1.845-0.364   c-0.518-0.105-0.987-0.621-1.039-1.15l-1.114-5.271c-0.171-0.506,0.066-1.158,0.511-1.46l1.471-0.99   c0.438-0.292,0.562-0.898,0.266-1.337l-2.273-3.395C42.105,19.48,41.499,19.367,41.059,19.661z M32.452,42.822   c-5.231,3.506-12.315,2.105-15.824-3.127c-3.509-5.233-2.105-12.317,3.127-15.824c5.234-3.508,12.318-2.107,15.824,3.127   C39.087,32.23,37.687,39.314,32.452,42.822z"/>
	<circle cx="66.975" cy="59.735" r="7.603"/>
	<path d="M29.279,38.086c-2.616,1.752-6.161,1.053-7.915-1.563c-1.752-2.618-1.053-6.16,1.566-7.914   c2.615-1.755,6.157-1.053,7.912,1.562C32.597,32.787,31.895,36.332,29.279,38.086z"/>
</g>
</svg>