<svg xmlns="http://www.w3.org/2000/svg" xmlns:xlink="http://www.w3.org/1999/xlink" version="1.1" x="0px" y="0px" width="100px" height="100px" viewBox="0 0 100 100" enable-background="new 0 0 100 100" xml:space="preserve">
<g id="Your_Icon">
</g>
<g id="Calque_1">
	<path d="M97.099,22.94c-0.239-0.067-5.928-1.655-10.139-1.655c-1.713,0-2.95,0.26-3.787,0.794c-0.993,0.64-1.219,1.468-1.232,2.049   c-0.037,1.699,1.7,3.497,2.991,4.601l-7.241,3.614l-1.845-3.671C61.822,7.803,45.04,3.421,33.428,3.421   c-3.155,0-6.372,0.316-9.568,0.933c-6.156,1.192-10.569,5.464-11.516,11.152c-0.799,4.811,1.141,9.344,5.067,12.189l5.667,31.895   l-8.78,4.382l-6.36-3.712l-1.125,1.928l5.098,2.974l-1.904,0.951l0.16-0.272l-6.694-3.903l-1.123,1.926l5.61,3.272l-2.294,1.143   l0.873,1.744l2.273-1.135l-0.277,6.313l2.231,0.097l0.33-7.549l1.497-0.746l-0.234,5.352l2.228,0.099l0.291-6.589l9.326-4.653   l22.562,22.554c-0.002,0.026-0.008,0.05-0.012,0.077c-0.408,3.735,0.686,7.258,3.074,9.923C52.242,96.457,55.746,98,59.436,98   c3.596,0,7.027-1.425,9.918-4.12c8.757-8.155,21.797-26.37,10.718-56.799l-1.506-2.996l7.311-3.648   c0.049,0.573,0.125,1.247,0.265,1.94c0.649,3.235,2.051,3.916,3.112,3.916l0,0c0.336,0,0.687-0.071,1.041-0.21   c3.571-1.397,7.016-10.926,7.396-12.008L98,23.195L97.099,22.94z M23.99,59.137l-5.454-30.686c0.042,0.023,0.072,0.053,0.115,0.077   c5.141,2.957,10.014,2.544,13.173-0.922c1.862-2.042,2.917-4.989,2.685-7.515c-0.43-4.589-4.713-7.431-8.436-7.431   c-2.709,0-4.528,1.495-4.745,3.9c-0.206,2.281,0.208,4.002,1.227,5.117c0.83,0.908,2.055,1.388,3.543,1.388   c1.477,0,2.748-0.467,2.802-0.485l-0.488-1.678c-0.004,0-0.282,0.057-0.682,0.057c-1.788,0-2.75-1.026-2.86-3.051   c-0.04-0.716,0.095-1.24,0.396-1.558c0.354-0.374,0.94-0.454,1.369-0.454c1.594,0,3.593,1.022,4.261,1.855   c0.015,0.023,1.453,2.373,0.72,5.003c-0.524,1.879-2.042,3.468-4.512,4.721c-1.031,0.525-2.074,0.792-3.102,0.792h-0.002   c-2.492,0-4.918-1.575-6.664-4.319c-1.998-3.15-2.533-6.978-1.333-9.527c1.652-3.502,7.457-5.856,14.442-5.856   c3.946,0,10.009,0.752,16.476,4.338c8.559,4.75,15.783,11.679,21.469,20.599l1.442,2.761L23.99,59.137z M72.265,40.922l0.096,0.246   c3.674,9.403,4.916,19.176,3.685,29.041c-1.809,14.535-12.27,24.181-18.392,24.181c-0.367,0-0.724-0.033-1.065-0.099   c-3.504-0.674-6.979-4.92-7.593-9.274c-0.272-1.938-0.168-5.477,3.597-7.389c1.595-0.811,3.078-1.223,4.414-1.223   c4.034,0,5.606,3.737,5.637,3.803c0.324,1.155-0.045,3.401-1.017,4.68c-0.762,1.002-1.579,1.039-2.628,0.179   c-0.914-0.744-1.39-1.527-1.411-2.323c-0.034-1.271,1.072-2.289,1.08-2.297l-1.066-1.384c-0.13,0.086-3.158,2.127-3.091,4.972   c0.04,1.752,1.217,3.333,3.49,4.696c2.605,1.558,5.659,0.006,6.96-3.436c0.981-2.59,1.03-6.577-2.047-9.297   c-1.646-1.449-4.09-2.315-6.543-2.315c-1.9,0-7.952,0.682-9.42,8.888L25.124,60.75l45.61-22.758L72.265,40.922z M89.653,34.453   c-0.15,0.057-0.285,0.088-0.4,0.088l0,0c-1.093,0-1.698-3.281-1.698-5.549v-0.453l-0.369-0.261   c-1.467-1.038-3.516-2.998-3.492-4.109c0.003-0.169,0.057-0.375,0.427-0.613c0.369-0.236,1.161-0.516,2.84-0.516   c3.01,0,6.981,0.904,8.749,1.348C94.266,28.207,91.626,33.68,89.653,34.453z"/>
</g>
</svg>