<svg xmlns="http://www.w3.org/2000/svg" xmlns:xlink="http://www.w3.org/1999/xlink" version="1.1" id="Layer_1" x="0px" y="0px" width="100px" height="100px" viewBox="0 0 100 100" enable-background="new 0 0 100 100" xml:space="preserve">
<g>
	<path d="M80.82,19.102c-11.329-4.912-24.267-0.947-31.05,8.821c-6.783-9.768-19.721-13.733-31.05-8.821   c-12.91,5.597-18.837,20.6-13.24,33.509c5.598,12.91,43.724,37.36,44.29,37.725c0.423-0.271,38.692-24.814,44.289-37.725   C99.657,39.702,93.729,24.699,80.82,19.102z M56.498,71.881H43.043l2.241-19.502c-2.435-1.506-4.063-4.193-4.063-7.268   c0-4.722,3.829-8.549,8.55-8.549c4.722,0,8.549,3.828,8.549,8.549c0,3.074-1.627,5.762-4.062,7.268L56.498,71.881z"/>
</g>
</svg>