<svg xmlns="http://www.w3.org/2000/svg" xmlns:xlink="http://www.w3.org/1999/xlink" version="1.1" id="Ebene_1" x="0px" y="0px" width="100px" height="100px" viewBox="0 0 100 100" enable-background="new 0 0 100 100" xml:space="preserve">
<path fill="#000000" d="M69.35,61.73V35.088h-5.43l-33.155-0.221V61.73H69.35z M45.066,40.8c0.511-0.158,1.033-0.238,1.55-0.238  c1.533,0,2.966,0.709,3.956,1.952c0.99-1.243,2.422-1.952,3.955-1.952c0.519,0,1.039,0.08,1.552,0.238  c2.11,0.656,3.517,2.461,3.665,4.71c0.132,1.993-0.871,3.728-2.979,5.158c-2.781,1.885-4.029,3.083-5.938,6.454l-0.062,0.106h-0.387  l-0.062-0.106c-1.91-3.371-3.157-4.567-5.939-6.454c-2.107-1.43-3.109-3.166-2.978-5.158C41.549,43.26,42.954,41.455,45.066,40.8z"/>
<polygon fill="#000000" points="30.227,33.817 58.203,28.042 58.203,33.817 "/>
</svg>